<svg aria-hidden="true" style="position: absolute; width: 0; height: 0; overflow: hidden;" version="1.1" xmlns="http://www.w3.org/2000/svg" xmlns:xlink="http://www.w3.org/1999/xlink">
<defs>
<symbol id="icon-Logo" viewBox="0 0 32 32">
<path fill="#f7fbfb" style="fill: var(--color1, #f7fbfb)" d="M27.216 7.083l-8.831-4.927c-0.642-0.358-1.489-0.556-2.384-0.556s-1.742 0.197-2.384 0.556l-8.831 4.927c-1.337 0.746-2.384 2.499-2.384 3.99v9.855c0 1.492 1.047 3.244 2.384 3.99l8.831 4.926c0.642 0.358 1.489 0.556 2.384 0.556s1.742-0.197 2.384-0.556l8.831-4.928c1.337-0.746 2.384-2.499 2.384-3.99v-9.856c0-1.488-1.047-3.242-2.384-3.988zM5.278 24.091c-1.024-0.571-1.89-2.020-1.89-3.164v-4.212c3.144-0.239 5.007 0.566 7.333 1.577 2.093 0.911 4.61 2.004 8.722 2.592-0.768 0.143-1.544 0.274-2.318 0.404-4.2 0.708-8.172 1.382-10.343 3.641l-1.504-0.839zM18.543 15.518c-1.898 0.729-4.369 1.382-8.025 1.643-1.616-0.694-3.154-1.28-5.17-1.415l6.715-6.488 6.479 6.261zM18.074 13.716l4.828-4.666 3.629 3.507c-2.089 0.184-3.552 0.899-5.173 1.696-0.565 0.278-1.166 0.572-1.835 0.864l-1.451-1.402zM28.612 20.927c0 1.144-0.865 2.592-1.89 3.164l-8.832 4.927c-0.486 0.272-1.175 0.429-1.89 0.429s-1.404-0.156-1.89-0.428l-6.452-3.601c1.992-1.901 5.712-2.528 9.637-3.19 4.424-0.745 8.979-1.515 11.318-4.275l-0.001 2.974zM28.612 16.17c-1.038 2.176-3.4 3.317-6.214 4.067-4.848-0.34-7.705-1.311-10.047-2.288 4.788-0.554 7.351-1.813 9.455-2.847 2.071-1.018 3.731-1.828 6.806-1.597v2.666zM28.612 12.548c-0.251-0.018-0.496-0.031-0.731-0.036l-4.629-4.473c-0.046-0.044-0.1-0.079-0.16-0.103s-0.124-0.036-0.189-0.036c-0.065 0-0.129 0.012-0.189 0.036s-0.114 0.059-0.16 0.103l-5.177 5.003-4.964-4.796c-0.046-0.044-0.1-0.079-0.16-0.103s-0.124-0.036-0.189-0.036c-0.065 0-0.129 0.012-0.189 0.036s-0.114 0.059-0.16 0.103l-7.743 7.482c-0.19 0.006-0.385 0.016-0.583 0.030v-4.685c0-1.143 0.866-2.593 1.89-3.164l8.832-4.927c0.487-0.272 1.176-0.428 1.89-0.428s1.404 0.156 1.89 0.428l8.832 4.927c1.025 0.572 1.89 2.021 1.89 3.164l-0.003 1.474z"></path>
</symbol>
<symbol id="icon-menu" viewBox="0 0 32 32">
<path fill="none" stroke="#f7fbfb" style="stroke: var(--color1, #f7fbfb)" stroke-linejoin="miter" stroke-linecap="round" stroke-miterlimit="10" stroke-width="2.4" d="M4.8 9.6h22.4M4.8 16h22.4M4.8 21.6h22.4"></path>
</symbol>
<symbol id="icon-telegram" viewBox="0 0 32 32">
<path fill="#f7fbfb" style="fill: var(--color1, #f7fbfb)" d="M15.993 2.667c-2.637 0-5.215 0.782-7.408 2.247s-3.902 3.548-4.911 5.984c-1.009 2.436-1.273 5.117-0.759 7.704s1.784 4.962 3.649 6.827c1.865 1.865 4.241 3.135 6.827 3.649s5.267 0.25 7.704-0.759c2.436-1.009 4.519-2.718 5.984-4.911s2.247-4.771 2.247-7.408c0-1.751-0.345-3.485-1.015-5.102s-1.652-3.088-2.89-4.326c-1.238-1.238-2.708-2.22-4.326-2.89s-3.351-1.015-5.102-1.015zM20.233 22.869c-0.050 0.125-0.126 0.237-0.222 0.33s-0.212 0.164-0.339 0.208c-0.127 0.044-0.261 0.061-0.395 0.050s-0.263-0.052-0.38-0.118l-3.62-2.813-2.323 2.144c-0.054 0.040-0.117 0.065-0.183 0.075s-0.134 0.001-0.197-0.023l0.445-3.985 0.013 0.012 0.009-0.079c0 0 6.513-5.931 6.779-6.183 0.269-0.252 0.18-0.307 0.18-0.307 0.016-0.307-0.481 0-0.481 0l-8.631 5.552-3.593-1.224c0 0-0.552-0.197-0.604-0.633-0.055-0.432 0.621-0.667 0.621-0.667l14.289-5.677c0 0 1.175-0.523 1.175 0.344l-2.544 12.995z"></path>
</symbol>
<symbol id="icon-facebook" viewBox="0 0 32 32">
<path fill="#f7fbfb" style="fill: var(--color1, #f7fbfb)" d="M16.001 2.72c-7.333 0-13.333 5.987-13.333 13.36 0 6.667 4.88 12.2 11.253 13.2v-9.333h-3.387v-3.867h3.387v-2.947c0-3.347 1.987-5.187 5.040-5.187 1.453 0 2.973 0.253 2.973 0.253v3.293h-1.68c-1.653 0-2.173 1.027-2.173 2.080v2.507h3.707l-0.6 3.867h-3.107v9.333c3.142-0.496 6.003-2.099 8.067-4.52s3.194-5.499 3.187-8.68c0-7.373-6-13.36-13.333-13.36z"></path>
</symbol>
<symbol id="icon-instagram" viewBox="0 0 32 32">
<path fill="#f7fbfb" style="fill: var(--color1, #f7fbfb)" d="M10.401 2.667h11.2c4.267 0 7.733 3.467 7.733 7.733v11.2c0 2.051-0.815 4.018-2.265 5.468s-3.417 2.265-5.468 2.265h-11.2c-4.267 0-7.733-3.467-7.733-7.733v-11.2c0-2.051 0.815-4.018 2.265-5.468s3.417-2.265 5.468-2.265zM10.134 5.333c-1.273 0-2.494 0.506-3.394 1.406s-1.406 2.121-1.406 3.394v11.733c0 2.653 2.147 4.8 4.8 4.8h11.733c1.273 0 2.494-0.506 3.394-1.406s1.406-2.121 1.406-3.394v-11.733c0-2.653-2.147-4.8-4.8-4.8h-11.733zM23.001 7.333c0.442 0 0.866 0.176 1.178 0.488s0.488 0.736 0.488 1.179c0 0.442-0.176 0.866-0.488 1.178s-0.736 0.488-1.178 0.488c-0.442 0-0.866-0.176-1.179-0.488s-0.488-0.736-0.488-1.178c0-0.442 0.176-0.866 0.488-1.179s0.736-0.488 1.179-0.488zM16.001 9.333c1.768 0 3.464 0.702 4.714 1.953s1.953 2.946 1.953 4.714c0 1.768-0.702 3.464-1.953 4.714s-2.946 1.953-4.714 1.953c-1.768 0-3.464-0.702-4.714-1.953s-1.953-2.946-1.953-4.714c0-1.768 0.702-3.464 1.953-4.714s2.946-1.953 4.714-1.953zM16.001 12c-1.061 0-2.078 0.421-2.828 1.172s-1.172 1.768-1.172 2.828c0 1.061 0.421 2.078 1.172 2.828s1.768 1.172 2.828 1.172c1.061 0 2.078-0.421 2.828-1.172s1.172-1.768 1.172-2.828c0-1.061-0.421-2.078-1.172-2.828s-1.768-1.172-2.828-1.172z"></path>
</symbol>
<symbol id="icon-burger" viewBox="0 0 32 32">
<path fill="none" stroke="#f7fbfb" style="stroke: var(--color1, #f7fbfb)" stroke-linejoin="round" stroke-linecap="round" stroke-miterlimit="4" stroke-width="1.6" d="M24 24l-16-16M24 8l-16 16"></path>
</symbol>
<symbol id="icon-round" viewBox="0 0 32 32">
<path d="M15.999 9.333c-7.36 0-13.333 2.987-13.333 6.667 0 2.987 3.92 5.507 9.333 6.36v2.693c0 0.6 0.72 0.893 1.133 0.467l3.72-3.72c0.267-0.267 0.267-0.68 0-0.947l-3.72-3.72c-0.094-0.092-0.213-0.154-0.342-0.179s-0.263-0.010-0.384 0.041c-0.121 0.051-0.225 0.137-0.297 0.247s-0.111 0.239-0.11 0.37v2.027c-4.2-0.747-6.667-2.533-6.667-3.64 0-1.413 4.053-4 10.667-4s10.667 2.587 10.667 4c0 0.88-1.6 2.24-4.427 3.12-0.547 0.173-0.907 0.68-0.907 1.253 0 0.893 0.867 1.547 1.707 1.28 3.773-1.173 6.293-3.267 6.293-5.653 0-3.68-5.973-6.667-13.333-6.667z"></path>
</symbol>
<symbol id="icon-gallery-left" viewBox="0 0 32 32">
<path d="M19.794 26.4c-0.265-0.004-0.519-0.104-0.712-0.283l-9.991-9.844c-0.188-0.187-0.293-0.439-0.293-0.701s0.105-0.515 0.293-0.701l9.991-9.844c0.194-0.157 0.44-0.237 0.691-0.225s0.488 0.116 0.666 0.291c0.177 0.175 0.283 0.409 0.295 0.656s-0.069 0.49-0.228 0.681l-9.291 9.143 9.291 9.143c0.188 0.187 0.293 0.439 0.293 0.701s-0.105 0.515-0.293 0.701c-0.193 0.178-0.447 0.279-0.712 0.283z"></path>
</symbol>
<symbol id="icon-gallery-right" viewBox="0 0 32 32">
<path d="M12.206 26.4c0.265-0.004 0.519-0.104 0.712-0.283l9.991-9.844c0.188-0.187 0.293-0.439 0.293-0.701s-0.105-0.515-0.293-0.701l-9.991-9.844c-0.194-0.157-0.44-0.237-0.691-0.225s-0.488 0.116-0.666 0.291c-0.178 0.175-0.283 0.409-0.295 0.656s0.069 0.49 0.228 0.681l9.291 9.143-9.291 9.143c-0.188 0.187-0.293 0.439-0.293 0.701s0.105 0.515 0.293 0.701c0.193 0.178 0.447 0.279 0.712 0.283z"></path>
</symbol>
<symbol id="icon-email" viewBox="0 0 32 32">
<path d="M26.88 5.6h-21.76c-1.496 0-2.706 1.17-2.706 2.6l-0.014 15.6c0 1.43 1.224 2.6 2.72 2.6h21.76c1.496 0 2.72-1.17 2.72-2.6v-15.6c0-1.43-1.224-2.6-2.72-2.6zM26.336 11.125l-9.615 5.746c-0.435 0.26-1.006 0.26-1.442 0l-9.615-5.746c-0.136-0.073-0.256-0.172-0.351-0.291s-0.164-0.254-0.203-0.399c-0.039-0.145-0.046-0.296-0.022-0.443s0.079-0.289 0.162-0.416 0.192-0.236 0.32-0.322c0.128-0.085 0.274-0.145 0.427-0.175s0.311-0.030 0.464-0c0.153 0.030 0.299 0.089 0.427 0.174l9.112 5.447 9.112-5.447c0.129-0.085 0.274-0.144 0.427-0.174s0.311-0.030 0.464 0c0.153 0.030 0.298 0.090 0.427 0.175s0.237 0.195 0.32 0.322c0.083 0.127 0.138 0.268 0.162 0.416s0.016 0.299-0.022 0.443c-0.039 0.145-0.108 0.281-0.203 0.399s-0.215 0.217-0.351 0.291z"></path>
</symbol>
<symbol id="icon-phone" viewBox="0 0 32 32">
<path d="M21.415 1.6h-10.831c-0.898 0-1.758 0.345-2.393 0.959s-0.991 1.446-0.991 2.314v22.255c0 0.868 0.357 1.7 0.991 2.314s1.496 0.959 2.393 0.959h10.831c0.898 0 1.759-0.345 2.393-0.959s0.991-1.446 0.991-2.314v-22.255c0-0.868-0.357-1.7-0.991-2.314s-1.496-0.959-2.393-0.959zM15.999 29.091c-1.124 0-2.031-0.877-2.031-1.964s0.907-1.964 2.031-1.964c1.124 0 2.031 0.877 2.031 1.964s-0.907 1.964-2.031 1.964zM22.091 23.855h-12.185v-18.327h12.185v18.327z"></path>
</symbol>
<symbol id="icon-place" viewBox="0 0 32 32">
<path d="M16 2.4c-5.307 0-9.6 4.257-9.6 9.52 0 7.14 9.6 17.68 9.6 17.68s9.6-10.54 9.6-17.68c0-5.263-4.293-9.52-9.6-9.52zM16 15.32c-0.909 0-1.781-0.358-2.424-0.996s-1.004-1.502-1.004-2.404c0-0.902 0.361-1.767 1.004-2.404s1.515-0.996 2.424-0.996c0.909 0 1.781 0.358 2.424 0.996s1.004 1.502 1.004 2.404c0 0.902-0.361 1.767-1.004 2.404s-1.515 0.996-2.424 0.996z"></path>
</symbol>
<symbol id="icon-copyright" viewBox="0 0 32 32">
<path stroke-linejoin="round" stroke-linecap="round" stroke-miterlimit="4" stroke-width="3" d="M20 13.5c0 0-1.5-2-4-2s-4.5 2-4.5 4.5c0 2.5 2 4.5 4.5 4.5s4-2 4-2M28.5 16c0 6.904-5.596 12.5-12.5 12.5s-12.5-5.596-12.5-12.5c0-6.904 5.596-12.5 12.5-12.5s12.5 5.596 12.5 12.5z"></path>
</symbol>
</defs>
</svg>
